<?xml version="1.0" encoding="UTF-8" standalone="no"?>
<svg
   width="80"
   height="80"
   version="1.1"
   id="svg5"
   sodipodi:docname="favicon-monshop.svg"
   inkscape:version="1.4.2 (ebf0e940d0, 2025-05-08)"
   xmlns:inkscape="http://www.inkscape.org/namespaces/inkscape"
   xmlns:sodipodi="http://sodipodi.sourceforge.net/DTD/sodipodi-0.dtd"
   xmlns="http://www.w3.org/2000/svg"
   xmlns:svg="http://www.w3.org/2000/svg">
  <defs
     id="defs5" />
  <sodipodi:namedview
     id="namedview5"
     pagecolor="#ffffff"
     bordercolor="#000000"
     borderopacity="0.25"
     inkscape:showpageshadow="2"
     inkscape:pageopacity="0.0"
     inkscape:pagecheckerboard="0"
     inkscape:deskcolor="#d1d1d1"
     inkscape:zoom="3.0851199"
     inkscape:cx="86.220313"
     inkscape:cy="95.296135"
     inkscape:window-width="1920"
     inkscape:window-height="1062"
     inkscape:window-x="0"
     inkscape:window-y="40"
     inkscape:window-maximized="1"
     inkscape:current-layer="svg5" />
  <!-- Fond circulaire bleu -->
  <circle
     cx="40"
     cy="40"
     r="35"
     fill="#2563eb"
     id="circle1" />
  <!-- Caddie (icône convertie, mise à l'échelle et repositionnée) -->
  <g
     transform="matrix(0.23,0,0,0.23,15,15)"
     id="g4">
    <g
       transform="matrix(0.1,0,0,-0.1,0,218)"
       fill="#ffffff"
       stroke="none"
       id="g3">
      <path
         d="m 526,1913 c 49,-26 88,-70 103,-115 5,-18 19,-139 30,-268 12,-129 30,-338 41,-464 11,-126 20,-235 20,-242 0,-12 91,-14 553,-14 h 552 l 63,198 c 87,270 169,523 177,545 7,16 -27,17 -616,17 -565,0 -624,2 -641,17 -24,21 -23,58 2,83 20,20 33,20 688,20 732,0 712,2 712,-58 0,-15 -40,-150 -89,-302 -49,-151 -113,-349 -142,-440 -34,-105 -61,-173 -76,-187 l -22,-23 H 1306 731 l 5,-68 c 3,-37 7,-73 10,-79 3,-10 111,-13 500,-13 h 497 l 45,-26 c 100,-59 109,-192 19,-271 -108,-95 -277,-15 -277,131 v 46 H 1185 840 V 358 C 840,240 726,153 617,189 c -46,16 -104,80 -113,125 -14,75 21,155 81,183 23,11 35,24 35,37 0,12 -16,205 -35,431 -19,226 -42,491 -50,590 -16,188 -26,229 -56,245 -10,6 -88,10 -174,10 -152,0 -156,1 -180,25 -32,31 -31,50 1,81 l 25,26 167,-4 c 148,-3 172,-6 208,-25 z"
         id="path1" />
    </g>
  </g>
  <!-- Texte MonShop -->
  <!-- Texte .bzh -->
</svg>
