<?xml version="1.0" standalone="no"?>
<!DOCTYPE svg PUBLIC "-//W3C//DTD SVG 20010904//EN"
 "http://www.w3.org/TR/2001/REC-SVG-20010904/DTD/svg10.dtd">
<svg version="1.0" xmlns="http://www.w3.org/2000/svg"
 width="285.000000pt" height="187.000000pt" viewBox="0 0 285.000000 187.000000"
 preserveAspectRatio="xMidYMid meet">
<g transform="translate(0.000000,187.000000) scale(0.100000,-0.100000)"
fill="#000000" stroke="none">
<path d="M817 1743 c-4 -3 -7 -19 -7 -35 0 -20 -9 -37 -30 -55 -16 -13 -30
-29 -30 -33 0 -5 30 -11 68 -13 l67 -4 -76 1 -76 1 5 -42 c4 -41 3 -43 -22
-43 -23 0 -26 -4 -26 -37 0 -20 7 -44 16 -54 15 -16 15 -33 -1 -206 -9 -103
-19 -197 -21 -209 -3 -19 -13 -22 -79 -27 -56 -4 -93 -14 -140 -36 -35 -17
-79 -31 -98 -31 -67 0 -47 -15 35 -26 l83 -11 -80 -2 c-52 -1 -99 -9 -135 -22
l-55 -20 45 6 c25 4 102 12 172 19 70 7 131 16 135 20 5 5 -11 7 -34 4 -50 -4
-58 7 -10 15 17 3 51 10 75 15 34 7 42 7 42 -5 0 -7 -7 -16 -15 -19 -31 -12
-13 -24 38 -25 268 -4 367 0 364 13 -4 20 32 21 70 3 34 -17 40 -17 82 -1 31
11 61 14 91 10 33 -4 57 -1 90 14 38 16 61 19 130 14 47 -3 132 -4 190 -3 58
2 102 0 99 -3 -3 -3 -36 -6 -73 -7 -42 -1 -63 -5 -54 -10 18 -12 -23 -11 -138
2 -87 10 -100 10 -152 -9 -31 -12 -73 -21 -92 -21 -60 0 -188 -8 -197 -14 -4
-2 -40 -5 -80 -6 -39 -1 -84 -4 -100 -7 -15 -3 -37 -7 -48 -9 -11 -1 -42 -13
-68 -25 -34 -15 -64 -21 -102 -19 -30 1 -58 0 -62 -4 -8 -9 183 -9 215 -1 12
4 22 12 22 19 0 9 24 15 78 19 42 4 132 11 200 17 68 6 126 8 129 5 10 -9 -16
-14 -169 -27 -82 -7 -148 -15 -148 -19 0 -4 100 -7 223 -7 168 -1 230 3 256
13 39 16 53 18 31 4 -13 -8 -13 -10 2 -10 9 0 21 6 25 13 14 21 50 36 74 30
19 -4 21 -3 9 6 -17 12 -64 15 -56 3 2 -4 -5 -9 -17 -10 -46 -5 -82 -10 -92
-11 -5 -1 -3 -5 5 -11 9 -6 -10 -8 -58 -6 -40 2 -75 6 -79 9 -3 4 -1 7 6 7 7
0 10 4 7 9 -6 9 41 8 81 -2 14 -4 30 1 41 11 10 9 13 14 7 10 -7 -4 -15 -5
-18 -1 -4 3 -7 1 -7 -5 0 -7 -7 -9 -19 -4 -30 11 -24 27 9 24 19 -2 30 1 30 9
0 10 3 10 12 1 15 -15 31 -16 22 0 -5 7 -3 8 6 3 10 -6 9 -11 -5 -21 -29 -22
-10 -27 27 -8 25 13 65 19 158 22 84 3 118 8 105 14 -16 6 -14 7 8 3 33 -7 99
4 92 15 -6 10 90 40 131 40 57 0 38 -17 -27 -24 -69 -8 -115 -36 -60 -36 17 0
31 4 31 9 0 5 20 11 45 13 29 2 45 -1 45 -8 0 -12 75 -24 148 -24 l42 0 0 53
c0 66 -16 90 -55 85 -29 -3 -30 -5 -33 -65 -2 -37 -7 -63 -14 -63 -6 0 -26 9
-45 21 -33 21 -34 22 -31 85 2 56 6 68 33 97 16 17 46 54 65 80 37 52 57 56
77 17 6 -14 21 -45 33 -70 12 -25 39 -66 61 -92 31 -37 39 -55 39 -87 0 -22
-4 -42 -9 -46 -27 -16 -119 -28 -223 -29 -108 -1 -136 4 -108 17 6 3 5 4 -2 3
-7 -2 -23 1 -35 5 -27 10 -30 1 -6 -17 28 -19 10 -26 -28 -10 -45 19 -72 21
-143 11 -40 -5 -54 -10 -45 -17 10 -7 8 -8 -6 -4 -11 3 -49 8 -85 11 -57 4
-62 3 -38 -8 l26 -12 -25 -12 c-13 -7 -32 -9 -40 -6 -11 4 -14 2 -9 -5 5 -8 0
-12 -14 -12 -12 0 -19 -4 -15 -10 3 -5 -10 -9 -32 -8 -21 1 -54 -2 -73 -6 -19
-4 -66 -11 -105 -15 l-70 -7 76 -8 c84 -9 192 4 236 28 15 8 39 20 53 26 27
12 256 16 306 5 26 -6 27 -5 9 7 -11 7 -51 13 -90 15 -87 2 -90 3 -40 14 66
13 122 11 140 -7 10 -11 20 -13 28 -6 19 15 69 21 116 15 35 -5 42 -9 38 -24
-6 -23 2 -24 28 -5 11 7 58 24 105 36 47 13 86 27 88 31 2 4 13 6 25 4 12 -3
33 5 47 16 25 21 25 21 2 16 -19 -5 -21 -3 -11 9 6 7 16 11 22 7 5 -3 7 -1 3
5 -3 6 8 21 25 35 l31 24 -71 64 c-64 57 -71 67 -71 100 0 21 6 39 12 41 8 3
-1 20 -24 47 l-37 43 106 69 105 70 -43 44 -43 44 -25 -19 c-14 -10 -50 -43
-80 -74 -42 -42 -58 -53 -68 -44 -8 6 -38 9 -73 6 -33 -2 -60 -1 -60 2 0 6
-130 183 -145 198 -2 3 -24 -12 -47 -34 l-43 -39 98 -98 c109 -108 107 -96 39
-168 -32 -35 -33 -36 -12 -42 12 -3 20 -12 18 -19 -3 -11 -153 -119 -183 -132
-5 -2 4 -16 20 -30 l30 -25 -31 -1 c-28 0 -32 4 -43 43 -14 48 -55 122 -74
134 -6 4 -4 -5 6 -20 9 -14 17 -33 17 -42 0 -8 5 -15 11 -15 6 0 9 -7 5 -15
-7 -19 4 -75 15 -75 4 0 3 14 -3 31 -6 16 -8 32 -5 35 3 3 15 -24 27 -60 21
-63 23 -66 53 -65 l32 1 -30 8 c-33 8 -32 10 3 14 13 2 25 -1 28 -6 3 -4 30
-5 60 -2 31 4 54 3 54 -3 0 -5 -17 -10 -37 -11 -21 -2 -83 -9 -138 -16 -81
-11 -211 -12 -223 -1 -1 1 12 39 30 83 17 45 34 80 36 77 3 -2 -3 -22 -12 -45
-18 -45 -22 -74 -6 -50 5 8 10 10 10 4 0 -6 -7 -17 -15 -24 -19 -16 -19 -30 0
-30 18 0 28 38 29 112 1 31 4 54 8 52 3 -2 6 12 6 32 0 19 -2 34 -4 32 -1 -2
-18 -44 -37 -93 l-34 -90 -54 5 c-30 3 -97 5 -150 4 -94 -1 -96 0 -96 23 0 28
-29 73 -46 73 -36 0 -52 -72 -21 -95 13 -9 14 -16 6 -31 -11 -18 -11 -18 -12
2 0 23 -23 48 -33 38 -3 -4 -2 -14 3 -24 12 -22 4 -30 -33 -30 -51 0 -21 -13
40 -17 66 -5 115 9 107 31 -4 11 3 12 43 4 26 -5 68 -7 93 -4 25 2 68 1 95 -3
45 -6 38 -8 -65 -15 -63 -5 -121 -13 -127 -18 -13 -10 -209 -15 -218 -6 -5 5
-45 262 -42 264 1 1 26 18 56 38 60 41 63 41 146 21 84 -20 131 -18 184 7 58
27 56 25 42 42 -10 12 -18 12 -58 -6 -48 -21 -48 -21 -210 -2 -68 8 -95 1
-130 -36 -33 -36 -43 -38 -43 -8 0 12 3 19 6 15 3 -3 18 8 33 25 34 39 92 46
188 24 70 -16 103 -13 152 13 26 14 30 47 4 36 -60 -26 -94 -29 -155 -15 -123
28 -193 13 -224 -48 -8 -17 -13 -1 -23 86 -15 123 -18 135 -30 128 -5 -3 -5
-24 0 -48 7 -34 73 -453 82 -517 2 -11 -12 -14 -62 -12 -43 2 -61 -1 -56 -8 3
-6 2 -11 -4 -11 -11 0 -26 39 -18 47 3 2 14 0 25 -6 32 -17 42 -13 42 15 0 17
-4 23 -12 18 -18 -10 0 8 34 33 24 18 26 22 13 33 -8 7 -15 22 -15 34 0 28
-18 46 -46 46 -29 0 -40 -34 -23 -68 11 -20 11 -26 2 -29 -7 -3 -13 -14 -13
-26 1 -20 2 -20 11 -4 5 9 17 17 26 17 13 0 14 -3 5 -12 -7 -7 -12 -20 -12
-30 0 -10 -4 -18 -10 -18 -5 0 -10 5 -10 11 0 5 -4 7 -10 4 -6 -4 -10 5 -10
19 l0 26 -136 0 -136 0 6 23 c3 12 6 37 6 55 l0 32 121 0 122 0 -6 48 c-16
121 -19 214 -9 235 6 12 12 37 15 55 3 29 1 32 -25 32 -25 0 -28 3 -28 35 0
20 5 35 12 35 7 0 -3 16 -22 35 -31 32 -59 48 -45 25 3 -5 0 -7 -8 -4 -8 3
-22 -3 -32 -12 -16 -17 -17 -17 -13 2 2 10 13 20 25 22 19 3 20 8 16 45 -6 48
-7 49 -16 40z m-27 -188 c0 -24 -5 -35 -15 -35 -10 0 -15 11 -15 35 0 24 5 35
15 35 10 0 15 -11 15 -35z m60 0 c0 -31 -3 -35 -25 -35 -22 0 -25 4 -25 35 0
31 3 35 25 35 22 0 25 -4 25 -35z m40 0 c0 -24 -5 -35 -15 -35 -10 0 -15 11
-15 35 0 24 5 35 15 35 10 0 15 -11 15 -35z m1092 -41 c32 -49 35 -59 22 -71
-17 -18 -18 -24 -1 -20 6 1 11 -3 10 -9 -1 -6 5 -11 13 -11 10 0 11 4 4 11
-16 16 -12 30 5 16 9 -7 13 -20 10 -28 -7 -19 33 -62 51 -55 8 3 14 0 14 -7 0
-6 -4 -8 -10 -5 -15 9 -12 -4 4 -21 21 -21 27 -17 20 11 -6 24 -4 25 27 19 19
-4 36 -8 38 -10 9 -8 -22 -32 -47 -37 -23 -5 -38 5 -109 75 -75 75 -90 98 -61
98 5 0 8 -7 5 -14 -4 -10 -1 -13 8 -9 16 6 7 30 -19 52 -9 8 -13 18 -9 25 3 6
3 8 -2 4 -9 -9 -36 23 -29 34 10 16 21 7 56 -48z m-52 0 c0 -17 -10 -17 -32 0
-13 9 -14 16 -6 24 14 14 38 -2 38 -24z m-1179 -39 l7 -30 1 33 c1 22 6 32 17
32 14 0 14 -3 3 -16 -10 -13 -10 -17 2 -25 10 -6 15 -2 17 16 4 32 52 37 52 5
0 -11 3 -19 8 -18 4 1 19 -2 34 -6 48 -14 21 -24 -60 -24 -67 0 -79 3 -95 21
-10 12 -16 16 -12 10 4 -8 0 -13 -9 -13 -9 0 -16 7 -16 15 0 8 5 15 11 15 5 0
7 5 3 11 -4 7 1 10 12 7 11 -2 21 -15 25 -33z m136 29 c-3 -3 -12 -4 -19 -1
-8 3 -5 6 6 6 11 1 17 -2 13 -5z m43 2 c0 -2 3 -11 6 -20 3 -9 1 -16 -6 -16
-6 0 -8 5 -5 10 3 6 2 10 -4 10 -5 0 -12 -6 -14 -12 -3 -7 -6 -3 -6 10 -1 13
5 22 14 22 8 0 15 -2 15 -4z m1025 -17 c10 -15 -1 -23 -20 -15 -9 3 -13 10
-10 16 8 13 22 13 30 -1z m450 1 c10 -16 -16 -43 -28 -31 -11 11 -2 41 12 41
5 0 13 -5 16 -10z m-45 -55 c-9 -11 -16 -13 -23 -6 -7 7 -6 15 3 26 9 11 16
13 23 6 7 -7 6 -15 -3 -26z m35 -26 c-31 -22 -60 -39 -65 -39 -6 0 -10 -4 -10
-8 0 -5 -18 -18 -40 -31 -22 -12 -38 -26 -36 -29 2 -4 -11 -8 -30 -8 -32 0
-33 1 -17 18 9 10 13 18 9 18 -4 0 -4 5 0 11 4 7 9 8 17 0 7 -7 6 -15 -4 -28
-11 -14 57 35 109 78 7 5 17 7 24 3 6 -4 8 -3 5 3 -9 14 19 37 33 28 5 -3 10
0 10 7 0 24 22 39 37 27 10 -9 1 -20 -42 -50z m-1488 7 c5 -5 1 -7 -9 -3 -13
5 -18 1 -18 -13 0 -15 -6 -18 -31 -15 -17 2 -37 9 -45 16 -11 9 -14 8 -14 -5
0 -9 -7 -16 -15 -16 -17 0 -21 36 -5 42 22 7 129 2 137 -6z m1423 7 c0 -12
-53 -63 -66 -63 -7 0 -14 -6 -17 -12 -2 -7 -8 -10 -12 -5 -10 8 26 38 37 31 5
-3 8 0 8 7 0 7 8 20 18 30 18 19 32 24 32 12z m-237 -66 c-3 -4 -6 -7 -7 -5
-1 2 -8 12 -16 22 -14 18 -14 18 7 6 12 -8 19 -18 16 -23z m62 13 c-3 -5 -12
-10 -18 -10 -7 0 -6 4 3 10 19 12 23 12 15 0z m45 -4 c-7 -7 -14 -6 -21 1 -9
9 -7 12 9 10 14 -1 18 -5 12 -11z m-1286 -30 c-3 -13 -1 -33 5 -44 9 -17 7
-21 -12 -26 -25 -7 -171 -8 -178 -2 -2 3 -3 25 -1 50 l4 46 94 0 94 0 -6 -24z
m1196 -81 c0 -14 -31 -25 -74 -25 -27 0 -28 -1 -12 -13 16 -12 17 -15 3 -20
-18 -7 -31 29 -13 41 6 4 19 19 29 35 17 26 18 27 42 11 14 -9 25 -22 25 -29z
m58 1 c3 -13 -1 -17 -14 -14 -11 2 -20 11 -22 22 -3 13 1 17 14 14 11 -2 20
-11 22 -22z m111 15 c2 -1 -2 -7 -8 -14 -6 -8 -8 -17 -4 -20 3 -4 -6 -7 -21
-7 -15 0 -25 4 -22 9 3 5 -2 15 -11 22 -12 10 -14 10 -9 2 4 -8 2 -13 -6 -14
-10 0 -10 -2 0 -6 6 -2 12 -13 12 -23 0 -10 10 -26 22 -34 16 -12 19 -18 10
-29 -9 -11 -5 -20 17 -41 18 -17 31 -24 35 -17 5 7 13 7 26 -2 22 -13 28 -41
8 -34 -7 2 -12 10 -10 16 1 6 -5 11 -13 11 -8 0 -15 -7 -15 -16 0 -8 4 -13 9
-9 14 8 25 -15 13 -27 -7 -7 -14 -3 -23 13 -7 13 -12 27 -11 32 1 4 -2 7 -7 7
-13 0 -71 75 -76 100 -3 11 -7 30 -10 42 -7 32 11 46 53 43 20 -2 39 -4 41 -4z
m-1499 -61 c0 -29 -4 -40 -15 -40 -10 0 -15 10 -15 33 0 19 3 37 7 40 15 16
23 5 23 -33z m106 13 c7 -10 16 -15 20 -10 4 4 2 7 -4 7 -7 0 -12 4 -12 10 0
5 7 7 15 4 8 -3 14 -16 13 -29 -1 -13 -6 -21 -11 -18 -5 3 -12 1 -16 -4 -3 -5
-25 -8 -48 -5 -39 4 -43 7 -43 31 0 23 4 26 36 29 26 1 41 -3 50 -15z m1234 0
c0 -5 -27 -34 -60 -66 -33 -31 -60 -62 -60 -67 0 -12 -17 -13 -24 -1 -3 5 6
16 20 26 21 13 23 19 13 31 -13 16 -6 30 10 19 6 -3 8 -11 5 -17 -4 -7 -2 -8
5 -4 9 6 9 11 1 21 -8 10 0 19 32 38 45 28 58 32 58 20z m188 -38 c1 -14 -3
-25 -8 -25 -6 0 -10 10 -11 23 0 18 -2 19 -7 5 -6 -16 -9 -15 -32 2 l-25 20
40 0 c36 0 41 -3 43 -25z m-33 -36 c10 -15 -1 -23 -20 -15 -9 3 -13 10 -10 16
8 13 22 13 30 -1z m-275 -9 c0 -5 -4 -10 -10 -10 -5 0 -10 5 -10 10 0 6 5 10
10 10 6 0 10 -4 10 -10z m-41 -39 c-30 -25 -42 -26 -37 -3 2 9 11 16 21 16 9
-1 17 5 17 14 0 12 3 13 12 4 8 -8 5 -16 -13 -31z m341 21 c0 -13 -12 -22 -22
-16 -10 6 -1 24 13 24 5 0 9 -4 9 -8z m-1276 -16 c-3 -8 0 -17 7 -22 8 -4 10
-3 5 4 -4 7 -5 12 -2 12 10 0 27 -41 21 -51 -10 -15 -55 38 -49 56 4 8 10 15
15 15 4 0 6 -6 3 -14z m884 -31 c-2 -5 -9 -9 -15 -9 -7 1 -10 -3 -7 -8 10 -15
-18 -29 -33 -16 -10 8 -8 14 10 29 23 19 50 22 45 4z m67 4 c10 -15 -1 -23
-20 -15 -9 3 -13 10 -10 16 8 13 22 13 30 -1z m-702 -13 c8 8 3 -18 -6 -34
-12 -18 -24 -6 -24 23 0 19 3 23 12 15 6 -5 14 -7 18 -4z m1102 -34 c-3 -9 0
-12 8 -9 7 3 20 -1 29 -7 15 -11 13 -15 -17 -39 -29 -23 -35 -24 -46 -11 -18
21 4 42 26 24 25 -21 17 2 -11 31 -14 15 -23 32 -19 39 10 16 38 -9 30 -28z
m-425 19 c0 -5 -6 -14 -14 -20 -10 -9 -15 -8 -19 3 -3 8 -3 17 0 20 9 9 33 7
33 -3z m40 -16 c0 -8 -8 -16 -17 -16 -17 -1 -17 -2 0 -6 30 -8 19 -22 -16 -21
l-34 1 31 28 c37 33 36 33 36 14z m-78 -7 c6 -16 -1 -38 -12 -38 -11 0 -21 30
-14 41 8 13 21 11 26 -3z m434 -27 c-10 -16 -23 -14 -30 5 -9 25 4 38 21 21 9
-8 12 -20 9 -26z m-1050 -18 c1 -8 -8 -13 -22 -13 -28 0 -27 0 -13 37 10 27
11 27 22 8 6 -11 12 -26 13 -32z m-523 25 c2 -7 2 -28 -1 -45 l-5 -33 83 0
c64 0 80 3 73 13 -16 21 -15 67 2 67 16 0 19 -9 16 -52 -1 -19 4 -28 14 -28 8
0 15 -5 15 -11 0 -5 5 -7 12 -3 6 4 8 3 4 -4 -3 -5 0 -13 6 -16 7 -4 3 -4 -9
-2 -13 2 -23 1 -23 -3 0 -4 -11 -7 -25 -7 -14 0 -25 6 -25 13 0 7 -4 13 -10
13 -5 0 -10 -6 -10 -13 0 -9 -12 -13 -35 -13 -19 1 -35 4 -35 9 0 4 -13 7 -30
7 -16 0 -30 -4 -30 -10 0 -19 -18 -10 -25 13 l-7 22 -8 -25 c-4 -14 -8 -19 -9
-12 -1 8 -10 10 -28 6 -23 -5 -26 -4 -15 7 18 19 15 26 -15 34 -37 11 -93 13
-93 5 0 -10 -81 -40 -91 -34 -16 9 -9 24 8 17 10 -4 14 -2 10 4 -7 11 71 36
85 27 4 -3 8 -1 8 4 0 5 11 10 25 10 13 0 22 -4 19 -9 -2 -4 8 -2 23 6 27 14
28 14 31 -9 2 -18 9 -23 33 -24 27 -1 29 2 29 37 0 37 6 51 21 51 4 0 9 -6 12
-12z m-51 -28 c-2 -16 -8 -30 -13 -30 -12 0 -11 17 1 41 15 26 17 24 12 -11z
m169 15 c1 -8 2 -22 3 -31 1 -14 -9 -17 -49 -17 -51 0 -65 13 -51 49 8 20 96
20 97 -1z m1257 -53 c3 -34 0 -41 -12 -36 -11 4 -16 19 -16 46 0 54 24 45 28
-10z m-574 10 c2 -4 -4 -8 -14 -8 -10 0 -16 4 -14 8 3 4 9 8 14 8 5 0 11 -4
14 -8z m779 -21 c3 -14 0 -19 -13 -18 -15 1 -16 5 -9 19 12 23 15 23 22 -1z
m-1262 -1 c49 0 32 -18 -21 -22 -31 -2 -50 1 -50 8 0 16 12 25 28 19 7 -3 27
-5 43 -5z m109 -10 c11 -7 6 -10 -22 -10 -20 0 -40 5 -43 10 -8 13 45 13 65 0z"/>
<path d="M812 1488 c6 -18 25 -21 25 -3 0 8 -7 15 -14 15 -8 0 -13 -5 -11 -12z"/>
<path d="M882 1315 c0 -16 2 -22 5 -12 2 9 2 23 0 30 -3 6 -5 -1 -5 -18z"/>
<path d="M815 1320 c-4 -6 -3 -16 3 -22 6 -6 12 -6 17 2 4 6 3 16 -3 22 -6 6
-12 6 -17 -2z"/>
<path d="M2210 1172 c6 -13 14 -21 18 -18 3 4 -2 14 -12 24 -18 16 -18 16 -6
-6z"/>
<path d="M2066 1185 c-11 -8 -17 -17 -14 -20 2 -3 13 4 23 15 21 23 18 25 -9
5z"/>
<path d="M1845 1619 c-3 -4 2 -6 10 -5 21 3 28 13 10 13 -9 0 -18 -4 -20 -8z"/>
<path d="M657 1539 c7 -7 15 -10 18 -7 3 3 -2 9 -12 12 -14 6 -15 5 -6 -5z"/>
<path d="M1210 1530 c13 -24 17 -25 17 -5 0 8 -6 16 -14 19 -11 4 -11 1 -3
-14z"/>
<path d="M2446 1538 c3 -5 10 -6 15 -3 13 9 11 12 -6 12 -8 0 -12 -4 -9 -9z"/>
<path d="M1064 1497 c3 -23 17 -37 29 -30 7 4 23 6 36 4 15 -2 21 1 17 8 -4 6
-16 11 -27 11 -11 0 -29 4 -39 10 -13 7 -18 6 -16 -3z"/>
<path d="M1174 1479 c-2 -4 14 -8 36 -7 22 0 43 5 46 10 3 5 -12 8 -36 6 -23
-1 -43 -5 -46 -9z"/>
<path d="M1265 1471 c-8 -20 -5 -21 66 -27 54 -4 72 -1 114 19 l50 24 -112 -1
c-88 0 -114 -4 -118 -15z"/>
<path d="M1580 1461 c34 -12 64 -31 80 -51 22 -28 28 -30 41 -19 17 17 74 26
65 10 -4 -6 -14 -11 -22 -11 -8 0 -12 -4 -9 -10 3 -6 -1 -7 -9 -4 -9 4 -16 1
-16 -6 0 -8 -10 -9 -31 -5 -22 5 -29 4 -25 -4 10 -16 60 -13 99 5 34 16 36 16
93 -12 33 -15 64 -30 69 -32 6 -3 0 7 -13 21 -32 34 -117 77 -155 77 -17 0
-40 9 -53 21 -24 23 -79 39 -134 38 -33 0 -32 -1 20 -18z m105 -26 c17 -13 25
-24 18 -25 -7 0 -23 11 -37 25 -32 32 -20 32 19 0z"/>
<path d="M645 1451 c-3 -5 -2 -12 3 -15 5 -3 9 1 9 9 0 17 -3 19 -12 6z"/>
<path d="M1132 1449 c2 -7 10 -15 17 -17 8 -3 12 1 9 9 -2 7 -10 15 -17 17 -8
3 -12 -1 -9 -9z"/>
<path d="M1182 1449 c2 -7 10 -15 17 -17 8 -3 12 1 9 9 -2 7 -10 15 -17 17 -8
3 -12 -1 -9 -9z"/>
<path d="M1230 1445 c0 -8 5 -15 10 -15 6 0 10 7 10 15 0 8 -4 15 -10 15 -5 0
-10 -7 -10 -15z"/>
<path d="M2236 1452 c-3 -5 1 -9 9 -9 8 0 12 4 9 9 -3 4 -7 8 -9 8 -2 0 -6 -4
-9 -8z"/>
<path d="M1080 1440 c13 -8 13 -10 1 -10 -12 0 -12 -3 -3 -12 6 -6 15 -9 18
-5 10 10 -4 37 -18 37 -9 0 -8 -3 2 -10z"/>
<path d="M1110 1437 c0 -11 32 -37 46 -37 20 0 18 16 -3 24 -10 3 -24 9 -30
12 -7 3 -13 3 -13 1z"/>
<path d="M1425 1424 c-38 -15 -86 -14 -142 2 -18 5 -21 3 -16 -14 3 -13 20
-24 49 -32 55 -16 109 -3 144 35 27 28 21 30 -35 9z"/>
<path d="M1180 1410 c0 -5 7 -10 15 -10 8 0 15 5 15 10 0 6 -7 10 -15 10 -8 0
-15 -4 -15 -10z"/>
<path d="M1235 1410 c3 -5 8 -10 11 -10 2 0 4 5 4 10 0 6 -5 10 -11 10 -5 0
-7 -4 -4 -10z"/>
<path d="M1089 1398 c-1 -2 -3 -13 -4 -25 -3 -31 12 -29 17 2 3 14 1 25 -3 25
-5 0 -10 -1 -10 -2z"/>
<path d="M480 1353 c-69 -7 -100 -14 -95 -23 3 -4 21 -3 41 3 26 8 44 8 66 -1
21 -8 36 -8 53 0 17 7 32 7 54 0 39 -14 40 -7 1 13 -28 14 -46 16 -120 8z"/>
<path d="M1950 1289 c0 -5 -6 -7 -12 -3 -10 6 -10 5 -1 -8 7 -8 9 -19 5 -24
-4 -4 1 -3 10 5 9 7 14 19 11 27 -6 17 -13 18 -13 3z"/>
<path d="M1212 1230 c-12 -5 -39 -21 -59 -35 -29 -19 -33 -25 -18 -25 11 0 26
9 33 21 7 12 16 18 19 15 3 -3 0 -13 -8 -22 -12 -15 -12 -17 1 -12 8 2 16 15
18 27 3 19 6 20 20 9 9 -7 13 -8 9 -2 -4 7 2 14 16 18 34 9 67 7 67 -4 0 -5
12 -9 28 -9 16 1 20 3 10 6 -10 2 -18 9 -18 14 0 12 -88 11 -118 -1z"/>
<path d="M1685 1205 c4 -22 11 -89 16 -150 l8 -110 -4 139 c-2 91 -8 142 -15
150 -10 8 -11 2 -5 -29z"/>
<path d="M1740 1231 c0 -6 4 -13 10 -16 6 -3 7 1 4 9 -7 18 -14 21 -14 7z"/>
<path d="M1246 1211 c-4 -5 3 -7 14 -4 23 6 26 13 6 13 -8 0 -17 -4 -20 -9z"/>
<path d="M1430 1210 c14 -4 37 -8 51 -9 15 -1 29 -8 33 -16 4 -11 20 -15 53
-15 l48 1 -69 24 c-38 14 -86 25 -105 24 -33 -1 -34 -2 -11 -9z"/>
<path d="M1820 1194 c-36 -14 -67 -28 -70 -31 -8 -10 59 6 93 21 54 24 79 29
87 16 5 -9 9 -8 13 2 8 23 -52 19 -123 -8z"/>
<path d="M1360 1180 c0 -5 5 -10 11 -10 5 0 7 5 4 10 -3 6 -8 10 -11 10 -2 0
-4 -4 -4 -10z"/>
<path d="M2120 1170 c0 -22 22 -35 44 -27 9 4 12 14 9 26 -7 29 -53 29 -53 1z"/>
<path d="M988 1173 c12 -2 32 -2 45 0 12 2 2 4 -23 4 -25 0 -35 -2 -22 -4z"/>
<path d="M1628 1163 c7 -3 16 -2 19 1 4 3 -2 6 -13 5 -11 0 -14 -3 -6 -6z"/>
<path d="M585 1150 c-13 -6 -15 -9 -5 -9 8 0 22 4 30 9 18 12 2 12 -25 0z"/>
<path d="M650 1150 c-9 -6 -10 -10 -3 -10 6 0 15 5 18 10 8 12 4 12 -15 0z"/>
<path d="M1485 1150 c3 -5 18 -10 32 -10 32 0 25 9 -12 16 -17 3 -24 1 -20 -6z"/>
<path d="M2355 1140 c10 -11 20 -20 23 -20 3 0 -3 9 -13 20 -10 11 -20 20 -23
20 -3 0 3 -9 13 -20z"/>
<path d="M1838 1143 c7 -3 16 -2 19 1 4 3 -2 6 -13 5 -11 0 -14 -3 -6 -6z"/>
<path d="M10 1110 c0 -13 7 -20 20 -20 13 0 20 7 20 20 0 13 -7 20 -20 20 -13
0 -20 -7 -20 -20z"/>
<path d="M620 1126 c0 -2 7 -6 15 -10 8 -3 15 -1 15 4 0 6 -7 10 -15 10 -8 0
-15 -2 -15 -4z"/>
<path d="M890 1097 c0 -20 4 -37 8 -37 10 0 9 56 -1 66 -4 4 -7 -9 -7 -29z"/>
<path d="M934 1114 c3 -9 6 -18 6 -20 0 -2 5 -4 10 -4 6 0 10 9 10 20 0 12 -7
20 -16 20 -11 0 -14 -5 -10 -16z"/>
<path d="M1170 1125 c0 -7 30 -13 34 -7 3 4 -4 9 -15 9 -10 1 -19 0 -19 -2z"/>
<path d="M2103 1123 c-7 -2 -13 -10 -13 -17 0 -7 -16 -29 -35 -50 -19 -21 -35
-44 -35 -50 1 -17 100 98 100 116 0 4 -1 8 -2 7 -2 0 -9 -3 -15 -6z"/>
<path d="M2190 1098 c11 -18 26 -43 32 -55 6 -13 15 -23 19 -23 10 0 -54 109
-64 110 -5 0 1 -15 13 -32z"/>
<path d="M2390 1126 c0 -3 18 -10 40 -16 22 -6 40 -15 40 -20 0 -12 54 -40 77
-40 16 1 16 2 -2 11 -11 6 -36 22 -55 34 -33 22 -100 43 -100 31z"/>
<path d="M505 1100 c-3 -5 -1 -10 4 -10 6 0 11 5 11 10 0 6 -2 10 -4 10 -3 0
-8 -4 -11 -10z"/>
<path d="M610 1101 c0 -6 5 -13 10 -16 6 -3 10 1 10 9 0 9 -4 16 -10 16 -5 0
-10 -4 -10 -9z"/>
<path d="M1123 1097 c1 -7 9 -18 17 -25 13 -12 13 -13 0 -6 -10 5 -9 0 4 -14
15 -18 16 -22 4 -22 -8 0 -15 -7 -15 -15 0 -9 6 -14 13 -11 7 3 18 -2 24 -10
22 -25 31 -15 15 16 -10 19 -11 30 -5 30 6 0 8 5 5 10 -4 6 -11 7 -17 4 -6 -4
-8 -2 -5 4 4 5 4 17 1 25 -7 18 -44 30 -41 14z"/>
<path d="M1683 1050 c0 -36 2 -50 4 -32 2 17 2 47 0 65 -2 17 -4 3 -4 -33z"/>
<path d="M464 1051 c-12 -15 -32 -27 -45 -28 -12 -1 -29 -9 -38 -18 -15 -15
-14 -16 14 -9 40 9 72 29 85 55 17 30 8 30 -16 0z"/>
<path d="M960 1064 c0 -8 5 -12 10 -9 6 4 8 11 5 16 -9 14 -15 11 -15 -7z"/>
<path d="M1330 1076 c0 -2 8 -10 18 -17 15 -13 16 -12 3 4 -13 16 -21 21 -21
13z"/>
<path d="M2420 1060 c0 -9 39 -25 46 -18 2 3 -7 10 -21 16 -14 6 -25 7 -25 2z"/>
<path d="M1065 1000 c-3 -5 1 -10 10 -10 9 0 13 5 10 10 -3 6 -8 10 -10 10 -2
0 -7 -4 -10 -10z"/>
<path d="M1764 996 c1 -8 5 -18 8 -22 4 -3 5 1 4 10 -1 8 -5 18 -8 22 -4 3 -5
-1 -4 -10z"/>
<path d="M2470 990 c0 -6 7 -13 15 -16 17 -7 20 -30 5 -39 -6 -3 -15 6 -20 20
-6 17 -14 23 -22 19 -9 -6 -9 -9 0 -12 7 -2 12 -11 12 -19 0 -9 -6 -13 -15 -9
-8 3 -15 2 -15 -3 0 -19 -78 -60 -127 -67 -52 -6 -65 -16 -41 -30 7 -4 8 -3 4
4 -5 9 7 12 40 12 35 0 56 7 80 25 40 30 100 43 180 38 45 -2 54 -1 37 7 -33
14 -28 24 7 16 19 -3 29 -2 25 4 -3 6 -13 10 -21 10 -8 0 -14 3 -14 8 0 15
-48 30 -59 19 -8 -8 -11 -8 -11 1 0 6 -6 9 -14 6 -8 -3 -17 -1 -21 5 -8 14
-25 14 -25 1z m80 -34 c0 -2 -7 -6 -15 -10 -8 -3 -15 -1 -15 4 0 6 7 10 15 10
8 0 15 -2 15 -4z"/>
<path d="M2277 983 c-11 -10 -8 -71 3 -78 6 -4 10 12 10 39 0 47 -2 51 -13 39z"/>
<path d="M1065 970 c-18 -8 -17 -9 8 -9 16 -1 26 3 22 9 -3 6 -7 10 -8 9 -1 0
-11 -4 -22 -9z"/>
<path d="M1671 964 c0 -11 3 -14 6 -6 3 7 2 16 -1 19 -3 4 -6 -2 -5 -13z"/>
<path d="M2208 903 c7 -3 16 -2 19 1 4 3 -2 6 -13 5 -11 0 -14 -3 -6 -6z"/>
<path d="M2638 902 c10 -6 0 -11 -35 -16 -26 -4 -59 -13 -73 -21 l-25 -14 28
-1 c15 0 27 4 27 9 0 4 30 11 66 14 89 9 101 21 33 33 -23 4 -30 3 -21 -4z"/>
<path d="M1045 870 c3 -5 12 -7 20 -3 21 7 19 13 -6 13 -11 0 -18 -4 -14 -10z"/>
<path d="M507 852 c-40 -2 -65 -7 -62 -13 4 -5 11 -7 16 -3 6 3 70 0 142 -7
115 -11 138 -10 177 3 l45 15 -106 0 c-58 1 -115 3 -125 5 -10 2 -50 2 -87 0z"/>
<path d="M275 830 c-18 -8 -18 -9 5 -8 14 0 39 4 55 8 l30 8 -35 0 c-19 0 -44
-3 -55 -8z"/>
<path d="M2489 821 c-1 -3 -1 -10 0 -14 1 -5 -3 -6 -8 -3 -5 4 -12 2 -15 -3
-4 -5 -17 -8 -31 -7 -13 2 -23 0 -20 -4 2 -4 -14 -7 -35 -8 -22 -1 -43 -3 -47
-4 -5 -1 -33 1 -63 5 -127 15 -149 15 -143 1 2 -7 12 -11 22 -9 10 2 53 -1 97
-6 91 -11 294 15 294 37 0 12 -49 27 -51 15z"/>
<path d="M1960 801 c8 -5 47 -11 85 -15 42 -3 62 -2 50 3 -28 12 -154 23 -135
12z"/>
<path d="M1628 793 c-32 -8 -19 -23 15 -16 48 9 69 23 32 22 -16 -1 -38 -3
-47 -6z"/>
<path d="M1740 790 c0 -11 21 -11 65 0 27 7 25 8 -17 9 -27 0 -48 -3 -48 -9z"/>
<path d="M950 770 c-10 -7 10 -10 65 -9 54 0 73 3 60 9 -27 12 -107 12 -125 0z"/>
<path d="M345 733 c-37 -10 -63 -34 -79 -74 -31 -77 -14 -178 35 -213 41 -28
129 -16 129 18 0 11 -10 13 -39 9 -36 -5 -41 -3 -55 25 -23 44 -21 129 4 170
22 35 44 40 70 17 16 -15 18 -14 22 10 3 14 3 27 -1 29 -14 8 -67 14 -86 9z
m-45 -94 c-17 -31 -23 -78 -12 -92 14 -19 22 -47 13 -47 -16 0 -33 58 -27 95
7 40 25 80 33 72 2 -3 -1 -15 -7 -28z"/>
<path d="M1824 732 c-5 -4 -10 -29 -9 -55 l0 -48 23 26 c12 14 22 34 22 44 0
22 -22 42 -36 33z"/>
<path d="M1928 714 c-40 -21 -60 -68 -61 -138 -1 -76 22 -122 68 -142 101 -42
175 19 175 145 0 116 -92 184 -182 135z m91 -33 c35 -35 38 -156 5 -208 -48
-76 -114 54 -85 165 16 59 47 76 80 43z m39 -16 c-3 -3 -9 2 -12 12 -6 14 -5
15 5 6 7 -7 10 -15 7 -18z m-148 -87 c-1 -66 2 -81 20 -104 14 -18 13 -18 -8
0 -12 11 -20 21 -17 24 2 3 0 14 -6 24 -10 18 -4 108 7 108 2 0 4 -24 4 -52z
m176 7 c1 -14 -2 -23 -7 -20 -5 4 -9 18 -9 32 0 32 12 23 16 -12z m-15 -88
c-10 -9 -11 -8 -5 6 3 10 9 15 12 12 3 -3 0 -11 -7 -18z"/>
<path d="M2110 721 c0 -6 4 -13 10 -16 6 -3 7 1 4 9 -7 18 -14 21 -14 7z"/>
<path d="M1225 701 c-3 -5 -2 -12 3 -15 5 -3 9 1 9 9 0 17 -3 19 -12 6z"/>
<path d="M1718 580 c3 -111 6 -130 22 -145 22 -20 64 -14 74 11 4 12 1 14 -14
9 -19 -6 -20 -2 -20 123 l0 130 -32 0 -33 0 3 -128z"/>
<path d="M1264 685 c-4 -8 -3 -22 0 -31 8 -21 50 -14 54 10 6 31 -43 50 -54
21z"/>
<path d="M1029 668 c-19 -6 -26 -14 -22 -27 3 -10 0 -22 -7 -26 -7 -5 -8 -11
-1 -19 6 -6 11 -45 13 -86 l3 -75 31 -3 c19 -2 36 3 44 12 11 14 9 16 -9 16
-19 0 -21 5 -21 70 0 58 3 68 15 64 10 -4 15 0 15 11 0 11 -5 15 -14 12 -11
-4 -16 3 -18 27 -3 31 -5 32 -29 24z"/>
<path d="M2607 663 c-14 -4 -18 -12 -14 -29 3 -16 0 -24 -9 -24 -8 0 -14 -4
-14 -10 0 -5 5 -10 10 -10 6 0 10 -31 10 -73 0 -43 5 -78 12 -85 15 -15 51
-15 66 0 17 17 15 26 -5 24 -15 -1 -18 9 -21 67 -2 55 0 67 13 67 8 0 15 5 15
10 0 6 -7 10 -16 10 -12 0 -15 7 -12 30 5 30 1 32 -35 23z"/>
<path d="M2186 649 c4 -8 30 -6 38 2 3 3 -5 5 -19 5 -13 0 -22 -3 -19 -7z"/>
<path d="M1583 623 c-7 -3 -13 -13 -13 -23 0 -11 -10 -20 -24 -24 -16 -4 -28
-17 -35 -39 -16 -47 -6 -65 33 -64 l32 1 12 75 c7 41 11 75 9 76 -1 1 -8 0
-14 -2z m-22 -95 c-7 -36 -31 -51 -31 -20 0 30 11 52 25 52 9 0 11 -9 6 -32z"/>
<path d="M464 613 c-41 -29 -46 -121 -9 -158 69 -70 155 26 109 122 -16 32
-24 38 -54 41 -19 1 -40 -1 -46 -5z m56 -82 c0 -59 -14 -86 -31 -60 -10 16
-12 80 -3 103 3 9 12 16 20 16 10 0 14 -15 14 -59z"/>
<path d="M592 596 c6 -11 8 -50 6 -88 l-5 -68 28 0 c28 0 28 0 31 73 4 93 23
91 23 -3 0 -69 0 -70 27 -70 27 0 27 1 30 73 4 93 23 91 23 -3 l0 -70 30 0 30
0 -5 77 c-3 43 -9 84 -13 91 -10 15 -53 16 -62 2 -4 -6 -12 -7 -18 -3 -7 5
-40 8 -74 8 -57 0 -60 -1 -51 -19z"/>
<path d="M832 596 c7 -12 9 -60 5 -125 l-5 -106 33 0 c32 0 32 1 28 36 -5 35
-4 36 19 32 37 -7 68 37 68 96 0 72 -16 86 -93 86 -61 0 -64 -1 -55 -19z m93
-37 c9 -42 -2 -99 -20 -99 -12 0 -15 15 -15 65 0 49 3 65 14 65 8 0 17 -14 21
-31z m-51 -105 c3 -8 2 -12 -4 -9 -6 3 -10 10 -10 16 0 14 7 11 14 -7z"/>
<path d="M1120 600 c-28 -28 -28 -117 0 -148 29 -31 73 -29 99 4 30 38 29 113
-2 142 -29 27 -71 28 -97 2z m65 -76 c0 -46 -3 -59 -15 -59 -11 0 -16 13 -18
49 -4 56 3 79 21 73 8 -2 12 -24 12 -63z"/>
<path d="M1395 583 c-14 -21 -25 -32 -25 -26 0 7 5 15 10 18 19 12 10 35 -12
35 -22 0 -23 -4 -23 -85 l0 -85 30 0 30 0 -3 55 c-4 58 9 88 34 78 10 -4 14 2
14 21 0 38 -25 33 -55 -11z"/>
<path d="M2347 613 c-25 -6 -47 -55 -47 -103 0 -68 57 -109 111 -80 10 6 19
17 19 26 0 12 -4 13 -22 3 -18 -10 -24 -8 -40 11 -30 37 -23 50 28 50 l47 0
-7 32 c-10 48 -44 72 -89 61z m43 -48 c0 -18 -5 -25 -20 -25 -21 0 -24 8 -14
34 10 25 34 19 34 -9z m-53 -40 c0 -8 -4 -12 -9 -9 -5 3 -6 10 -3 15 9 13 12
11 12 -6z"/>
<path d="M2490 613 c-21 -8 -40 -34 -40 -56 0 -11 17 -35 37 -53 29 -27 34
-37 25 -46 -10 -10 -17 -10 -32 0 -26 16 -30 15 -30 -7 0 -13 9 -21 28 -26 40
-8 78 9 86 39 8 32 -5 58 -39 80 -43 28 -29 60 16 36 16 -9 19 -7 19 10 0 11
-6 20 -14 20 -8 0 -20 2 -28 4 -7 3 -20 2 -28 -1z m55 -112 c3 -5 2 -12 -3
-15 -5 -3 -9 1 -9 9 0 17 3 19 12 6z"/>
<path d="M1255 525 l0 -85 33 0 32 0 0 85 0 85 -32 0 -33 0 0 -85z"/>
<path d="M2134 594 c3 -9 6 -47 6 -85 0 -63 2 -70 23 -78 15 -6 29 -5 45 5 12
8 22 10 22 4 0 -5 14 -10 31 -10 24 0 30 3 25 16 -3 9 -6 49 -6 90 l0 74 -31
0 -30 0 3 -72 c2 -63 0 -73 -15 -76 -15 -3 -17 6 -17 72 l0 76 -31 0 c-24 0
-30 -3 -25 -16z"/>
<path d="M1622 572 c-7 -5 -16 -23 -21 -40 -7 -25 -6 -36 6 -47 17 -18 44 -16
50 2 3 7 -3 9 -16 6 -15 -4 -21 -1 -21 11 0 11 9 16 26 16 22 0 25 4 22 27 -3
29 -23 39 -46 25z m28 -27 c0 -8 -7 -15 -15 -15 -9 0 -12 6 -9 15 4 8 10 15
15 15 5 0 9 -7 9 -15z"/>
<path d="M2705 501 c-3 -5 -2 -12 3 -15 5 -3 9 1 9 9 0 17 -3 19 -12 6z"/>
<path d="M1855 440 c-3 -6 1 -7 9 -4 18 7 21 14 7 14 -6 0 -13 -4 -16 -10z"/>
<path d="M1137 335 c3 -8 9 -12 14 -9 12 7 11 11 -5 17 -10 4 -13 1 -9 -8z"/>
<path d="M1520 340 c-9 -6 -10 -10 -3 -10 6 0 15 5 18 10 8 12 4 12 -15 0z"/>
<path d="M2327 322 c-10 -10 -17 -35 -17 -55 0 -35 2 -37 31 -37 17 0 28 4 24
10 -3 6 -14 10 -23 10 -13 0 -13 2 4 15 17 13 17 14 2 15 -10 0 -18 5 -18 11
0 6 7 9 15 6 8 -4 17 -2 20 3 4 6 -1 10 -11 10 -13 0 -14 3 -4 15 18 22 -4 19
-23 -3z"/>
<path d="M550 276 c0 -25 5 -46 10 -46 6 0 10 8 10 19 0 11 9 21 21 24 31 8
21 41 -14 45 -26 3 -27 2 -27 -42z m40 14 c0 -5 -4 -10 -10 -10 -5 0 -10 5
-10 10 0 6 5 10 10 10 6 0 10 -4 10 -10z"/>
<path d="M630 275 c0 -45 19 -66 21 -22 l0 22 11 -22 c16 -33 25 -28 24 14 -1
26 -7 38 -21 44 -33 13 -35 11 -35 -36z m40 15 c0 -5 -4 -10 -10 -10 -5 0 -10
5 -10 10 0 6 5 10 10 10 6 0 10 -4 10 -10z"/>
<path d="M723 313 c-7 -2 -13 -20 -13 -38 0 -25 5 -35 20 -40 11 -3 24 -3 30
0 14 9 13 58 -2 73 -13 13 -16 13 -35 5z m27 -38 c0 -14 -4 -25 -9 -25 -12 0
-19 21 -13 38 8 21 22 13 22 -13z"/>
<path d="M886 308 c-4 -9 -6 -29 -4 -45 2 -22 8 -28 28 -28 22 0 25 5 28 38 2
21 -1 37 -7 37 -6 0 -11 -13 -11 -30 0 -43 -18 -37 -22 8 -3 27 -6 32 -12 20z"/>
<path d="M969 280 c-6 -48 -4 -60 9 -44 4 5 5 27 2 49 l-6 40 -5 -45z"/>
<path d="M1003 308 c-2 -5 1 -8 6 -8 6 0 11 -16 11 -35 0 -19 5 -35 10 -35 6
0 10 16 10 35 0 19 5 35 10 35 6 0 10 3 10 8 0 4 -12 7 -26 7 -14 0 -28 -3
-31 -7z"/>
<path d="M1865 309 c-4 -6 -4 -13 -1 -16 3 -3 1 -12 -5 -19 -19 -23 -3 -44 34
-42 30 1 33 4 29 24 -2 13 -9 21 -14 18 -10 -7 -28 13 -28 31 0 6 4 3 10 -5 5
-8 12 -11 15 -8 10 10 -4 28 -20 28 -8 0 -17 -5 -20 -11z m20 -49 c3 -5 1 -10
-4 -10 -6 0 -11 5 -11 10 0 6 2 10 4 10 3 0 8 -4 11 -10z"/>
<path d="M800 271 c0 -33 3 -41 19 -41 48 0 56 73 9 78 -27 3 -28 1 -28 -37z
m38 7 c-4 -31 -26 -34 -24 -3 0 14 7 25 14 25 8 0 12 -9 10 -22z"/>
<path d="M1080 298 c0 -6 7 -20 17 -30 15 -17 15 -18 -2 -18 -14 0 -16 -3 -8
-11 15 -15 43 -4 43 16 0 9 -7 18 -15 21 -8 4 -15 11 -15 16 0 6 7 8 15 4 8
-3 15 -1 15 4 0 6 -11 10 -25 10 -14 0 -25 -5 -25 -12z"/>
<path d="M1195 270 c0 -38 2 -41 25 -38 21 3 25 9 27 41 2 34 0 37 -25 37 -25
0 -27 -3 -27 -40z m35 20 c0 -5 -4 -10 -10 -10 -5 0 -10 5 -10 10 0 6 5 10 10
10 6 0 10 -4 10 -10z m0 -30 c0 -5 -4 -10 -10 -10 -5 0 -10 5 -10 10 0 6 5 10
10 10 6 0 10 -4 10 -10z"/>
<path d="M1279 268 c3 -24 6 -35 9 -25 4 21 18 22 26 2 3 -8 10 -15 16 -15 6
0 8 5 4 12 -5 7 -7 25 -6 40 2 24 -1 28 -26 28 -27 0 -27 -2 -23 -42z m31 22
c0 -5 -4 -10 -10 -10 -5 0 -10 5 -10 10 0 6 5 10 10 10 6 0 10 -4 10 -10z"/>
<path d="M1360 270 c0 -36 3 -40 25 -40 14 0 25 5 25 10 0 6 -7 10 -15 10 -18
0 -20 16 -2 23 10 4 10 6 0 6 -19 1 -16 19 5 24 10 3 6 5 -10 6 -26 1 -28 -2
-28 -39z"/>
<path d="M1433 303 c12 -3 17 -15 17 -39 0 -19 4 -33 9 -30 5 3 7 19 5 35 -3
22 1 31 14 34 9 3 -1 5 -23 5 -22 0 -32 -2 -22 -5z"/>
<path d="M1500 275 c-12 -38 -6 -60 10 -35 7 12 12 12 22 2 22 -22 27 -13 14
25 -17 49 -32 52 -46 8z m30 -5 c0 -5 -2 -10 -4 -10 -3 0 -8 5 -11 10 -3 6 -1
10 4 10 6 0 11 -4 11 -10z"/>
<path d="M1574 296 c-3 -8 -4 -25 -2 -38 4 -30 58 -36 58 -7 0 11 -7 19 -16
19 -8 0 -12 -4 -9 -10 3 -5 1 -10 -4 -10 -6 0 -11 12 -11 26 0 21 3 24 21 19
15 -5 19 -4 15 4 -10 16 -46 14 -52 -3z"/>
<path d="M1650 270 c0 -44 19 -56 21 -12 l1 27 11 -27 c16 -41 27 -34 26 15
-1 34 -2 37 -8 17 l-7 -25 -8 23 c-13 38 -36 27 -36 -18z"/>
<path d="M1740 270 c0 -38 2 -40 31 -40 17 0 28 4 24 10 -3 6 -13 10 -21 10
-20 0 -18 18 4 23 16 4 16 5 0 6 -26 2 -22 19 5 24 16 3 13 5 -10 6 -32 1 -33
0 -33 -39z"/>
<path d="M1993 270 c14 -51 30 -51 44 0 7 30 7 40 -1 37 -6 -2 -13 -14 -16
-28 l-6 -24 -7 28 c-4 15 -11 27 -16 27 -4 0 -3 -18 2 -40z"/>
<path d="M2070 270 c0 -36 3 -40 25 -40 14 0 25 5 25 10 0 6 -10 10 -22 10
-22 1 -22 1 -5 14 18 14 18 14 0 19 -15 3 -14 6 7 15 l25 11 -27 0 c-26 1 -28
-2 -28 -39z"/>
<path d="M2140 270 c0 -41 19 -58 21 -17 l0 22 11 -22 c17 -35 28 -27 27 20
-1 37 -2 39 -8 13 l-6 -30 -12 27 c-18 39 -33 33 -33 -13z"/>
<path d="M2230 270 c0 -32 4 -40 19 -40 27 0 44 26 37 55 -5 18 -13 25 -31 25
-22 0 -25 -4 -25 -40z m40 -1 c0 -10 -4 -19 -10 -19 -5 0 -10 12 -10 26 0 14
4 23 10 19 6 -3 10 -15 10 -26z"/>
<path d="M2390 270 c0 -38 2 -40 31 -40 17 0 28 4 24 10 -3 5 -12 7 -20 3 -9
-3 -15 1 -15 10 0 8 6 18 13 20 10 4 10 6 0 6 -7 1 -13 6 -13 12 0 6 7 9 15 5
8 -3 15 -1 15 4 0 6 -11 10 -25 10 -22 0 -25 -4 -25 -40z"/>
<path d="M315 290 c-37 -7 -36 -7 21 -9 34 0 82 -4 108 -7 38 -6 46 -4 46 10
0 13 -11 16 -67 15 -38 -1 -86 -5 -108 -9z"/>
<path d="M2514 291 c-15 -15 6 -21 74 -20 129 2 151 15 34 20 -57 2 -106 2
-108 0z"/>
<path d="M482 220 c0 -14 2 -19 5 -12 2 6 2 18 0 25 -3 6 -5 1 -5 -13z"/>
<path d="M995 120 c-265 -4 -297 -6 -145 -8 107 -1 291 -7 408 -13 116 -6 219
-9 227 -5 8 3 12 12 9 21 -5 12 -22 15 -83 13 -42 -2 -229 -5 -416 -8z"/>
<path d="M1518 124 c-5 -4 -8 -14 -8 -22 0 -12 20 -13 138 -7 75 4 270 11 432
15 l295 7 -336 1 c-185 1 -376 5 -425 8 -49 4 -92 3 -96 -2z"/>
</g>
</svg>
